<?xml version="1.0" encoding="UTF-8" standalone="no"?>
<!-- Created with Inkscape (http://www.inkscape.org/) -->

<svg
   xmlns:dc="http://purl.org/dc/elements/1.1/"
   xmlns:cc="http://creativecommons.org/ns#"
   xmlns:rdf="http://www.w3.org/1999/02/22-rdf-syntax-ns#"
   xmlns:svg="http://www.w3.org/2000/svg"
   xmlns="http://www.w3.org/2000/svg"
   xmlns:sodipodi="http://sodipodi.sourceforge.net/DTD/sodipodi-0.dtd"
   xmlns:inkscape="http://www.inkscape.org/namespaces/inkscape"
   width="297mm"
   height="210mm"
   viewBox="0 0 297 210"
   version="1.1"
   id="svg2991"
   inkscape:version="0.92.1 r15371"
   sodipodi:docname="tela com menu.svg">
  <defs
     id="defs2985">
    <marker
       style="overflow:visible"
       refY="0"
       refX="0"
       orient="auto"
       inkscape:stockid="Arrow2Send"
       inkscape:isstock="true"
       id="marker4235">
      <path
         inkscape:connector-curvature="0"
         transform="matrix(-0.3,0,0,-0.3,0.69,0)"
         style="fill:#000000;fill-opacity:1;stroke:#000000;stroke-opacity:1"
         id="path4233"
         d="M 8.72,4.03 -2.21,0.02 8.72,-4 c -1.75,2.37 -1.74,5.62 0,8.03 z" />
    </marker>
    <marker
       style="overflow:visible"
       refY="0"
       refX="0"
       orient="auto"
       inkscape:stockid="Arrow2Sstart"
       inkscape:isstock="true"
       id="marker4207">
      <path
         inkscape:connector-curvature="0"
         transform="matrix(0.3,0,0,0.3,-0.69,0)"
         style="fill:#000000;fill-opacity:1;stroke:#000000;stroke-opacity:1"
         id="path4205"
         d="M 8.72,4.03 -2.21,0.02 8.72,-4 c -1.75,2.37 -1.74,5.62 0,8.03 z" />
    </marker>
    <marker
       id="Arrow2Sstart"
       inkscape:isstock="true"
       inkscape:stockid="Arrow2Sstart"
       orient="auto"
       refX="0"
       refY="0"
       style="overflow:visible"
       inkscape:collect="always">
      <path
         d="M 8.72,4.03 -2.21,0.02 8.72,-4 c -1.75,2.37 -1.74,5.62 0,8.03 z"
         id="Arrow2SstartPath"
         style="fill:#000000;fill-opacity:1;stroke:#000000;stroke-opacity:1"
         transform="matrix(0.3,0,0,0.3,-0.69,0)"
         inkscape:connector-curvature="0" />
    </marker>
    <marker
       id="Arrow2Send"
       inkscape:isstock="true"
       inkscape:stockid="Arrow2Send"
       orient="auto"
       refX="0"
       refY="0"
       style="overflow:visible"
       inkscape:collect="always">
      <path
         d="M 8.72,4.03 -2.21,0.02 8.72,-4 c -1.75,2.37 -1.74,5.62 0,8.03 z"
         id="Arrow2SendPath"
         style="fill:#000000;fill-opacity:1;stroke:#000000;stroke-opacity:1"
         transform="matrix(-0.3,0,0,-0.3,0.69,0)"
         inkscape:connector-curvature="0" />
    </marker>
  </defs>
  <sodipodi:namedview
     id="base"
     pagecolor="#ffffff"
     bordercolor="#666666"
     borderopacity="1.0"
     inkscape:pageopacity="0.0"
     inkscape:pageshadow="2"
     inkscape:zoom="0.70710678"
     inkscape:cx="474.76313"
     inkscape:cy="432.15179"
     inkscape:document-units="mm"
     inkscape:current-layer="layer1"
     showgrid="false"
     inkscape:window-width="1366"
     inkscape:window-height="715"
     inkscape:window-x="-8"
     inkscape:window-y="-8"
     inkscape:window-maximized="1"
     showguides="true"
     inkscape:guide-bbox="true"
     inkscape:measure-start="39.9206,232.815"
     inkscape:measure-end="39.9515,211.113" />
  <metadata
     id="metadata2988">
    <rdf:RDF>
      <cc:Work
         rdf:about="">
        <dc:format>image/svg+xml</dc:format>
        <dc:type
           rdf:resource="http://purl.org/dc/dcmitype/StillImage" />
        <dc:title />
      </cc:Work>
    </rdf:RDF>
  </metadata>
  <g
     inkscape:label="Camada 1"
     inkscape:groupmode="layer"
     id="layer1"
     transform="translate(0,-87)">
    <rect
       style="fill:#800080;stroke-width:0.31827801"
       id="rect3014"
       width="296.99988"
       height="4.957849"
       x="0"
       y="87.013023" />
    <rect
       style="fill:#000000;stroke-width:4.9543376"
       id="rect3016"
       width="80.002319"
       height="205.05617"
       x="0"
       y="91.97084" />
    <rect
       style="fill:#000000;fill-opacity:1;stroke-width:0.26458332"
       id="rect3833"
       width="53.507359"
       height="19.083044"
       x="14.967093"
       y="146.58072" />
    <rect
       style="fill:#800080;fill-opacity:1;stroke-width:0.25323996"
       id="rect4673"
       width="54.371872"
       height="61.71624"
       x="11.90625"
       y="91.947922" />
    <g
       id="g3844">
      <path
         inkscape:connector-curvature="0"
         id="path3018"
         d="m 43.501972,130.62981 c -0.491813,-1.78355 -2.427015,-8.11205 -3.468158,-11.34158 -0.316664,-0.98227 -1.568365,-4.84105 -2.781557,-8.57508 -1.213188,-3.73403 -2.179894,-6.81505 -2.148234,-6.84671 0.03166,-0.0317 2.22522,3.90537 4.874572,8.74896 2.649353,4.84359 4.876036,8.81408 4.948185,8.82332 0.07215,0.009 3.159421,-3.80799 6.860606,-8.48272 3.701182,-4.67473 6.756342,-8.47259 6.789243,-8.43969 0.04353,0.0435 -14.394873,27.63347 -14.565765,27.83329 -0.01442,0.0169 -0.243417,-0.75705 -0.508892,-1.71979 z"
         style="fill:#ffffff;stroke-width:0.13229166" />
      <path
         inkscape:connector-curvature="0"
         id="path3020"
         d="m 17.90772,124.30521 c 0.04368,-0.10359 0.730676,-1.58732 1.526667,-3.29719 1.658583,-3.5628 4.661858,-10.39501 8.061185,-18.33856 1.293088,-3.021685 2.367413,-5.415052 2.387386,-5.318592 0.01998,0.09646 -0.941591,4.550932 -2.136812,9.898822 -1.195221,5.34789 -2.156929,9.74049 -2.13713,9.76134 0.01979,0.0208 2.872118,-0.47957 6.338488,-1.11204 3.466368,-0.63247 6.32953,-1.1229 6.362581,-1.08985 0.03305,0.0331 0.171845,0.41914 0.308425,0.85798 l 0.248333,0.79789 -10.330935,3.9501 c -12.0979,4.62572 -10.72675,4.12385 -10.628188,3.8901 z"
         style="fill:#ffffff;stroke-width:0.13229166" />
      <path
         inkscape:connector-curvature="0"
         id="path3022"
         d="m 41.420831,114.7877 c -0.205277,-0.40237 -0.230073,-0.54583 -0.101907,-0.58956 0.297691,-0.10156 6.101493,-1.12659 6.143125,-1.08495 0.04135,0.0413 -5.538835,2.20629 -5.686782,2.20629 -0.04573,0 -0.205224,-0.2393 -0.354436,-0.53178 z"
         style="fill:#ffffff;stroke-width:0.13229166" />
      <text
         id="text3837"
         y="144.70982"
         x="17.586336"
         style="font-style:normal;font-variant:normal;font-weight:normal;font-stretch:normal;font-size:10.58333302px;line-height:1.25;font-family:Consolas;-inkscape-font-specification:Consolas;letter-spacing:0px;word-spacing:0px;fill:#000000;fill-opacity:1;stroke:none;stroke-width:0.26458332"
         xml:space="preserve"><tspan
           style="fill:#ffffff;stroke-width:0.26458332"
           y="144.70982"
           x="17.586336"
           id="tspan3835"
           sodipodi:role="line">Certweb</tspan></text>
    </g>
    <g
       id="g4396"
       transform="translate(0,9.5250005)">
      <g
         style="fill:#ffffff"
         transform="matrix(0.16002714,0,0,0.16002714,13.083085,164.12653)"
         id="g3922">
        <g
           style="fill:#ffffff"
           id="g3860">
          <g
             style="fill:#ffffff"
             id="g3858">
            <polygon
               style="fill:#ffffff"
               points="46.746,93.802 54.7,77.1 39.102,77.123 "
               id="polygon3846" />
            <path
               style="fill:#ffffff"
               inkscape:connector-curvature="0"
               d="M 2.167,0 V 73.199 H 91.635 V 0 Z M 85.825,67.391 H 7.977 V 5.81 h 77.848 z"
               id="path3848" />
            <path
               style="fill:#ffffff"
               inkscape:connector-curvature="0"
               d="m 27.607,34.385 -10.45,10.874 v 18.349 c 0,0.516 0.419,0.936 0.936,0.936 h 12.688 c 0.517,0 0.936,-0.419 0.936,-0.936 V 35.461 l -2.926,-1.076 z"
               id="path3850" />
            <path
               style="fill:#ffffff"
               inkscape:connector-curvature="0"
               d="M 53.45,42.913 H 40.763 c -0.518,0 -0.937,0.419 -0.937,0.936 v 19.758 c 0,0.517 0.419,0.937 0.937,0.937 H 53.45 c 0.517,0 0.936,-0.419 0.936,-0.937 V 43.848 c 0,-0.516 -0.419,-0.935 -0.936,-0.935 z"
               id="path3852" />
            <path
               style="fill:#ffffff"
               inkscape:connector-curvature="0"
               d="m 71.892,22.785 -2.305,-1.926 -8.339,9.097 v 33.651 c 0,0.516 0.419,0.936 0.937,0.936 h 12.688 c 0.517,0 0.936,-0.419 0.936,-0.936 V 23.095 c -0.052,0.03 -0.099,0.067 -0.152,0.094 -0.485,0.254 -1.03,0.388 -1.578,0.388 -0.801,10e-4 -1.575,-0.28 -2.187,-0.792 z"
               id="path3854" />
            <path
               style="fill:#ffffff"
               inkscape:connector-curvature="0"
               d="m 14.057,43.857 c 0.491,0 0.982,-0.193 1.35,-0.575 L 27.35,30.854 48.247,38.543 c 0.714,0.261 1.512,0.068 2.027,-0.492 l 19.243,-20.991 4.502,3.764 c 0.221,0.184 0.528,0.216 0.782,0.084 0.253,-0.133 0.403,-0.404 0.377,-0.691 L 74.202,9.305 C 74.168,8.915 73.823,8.628 73.434,8.663 L 62.521,9.637 c -0.285,0.025 -0.527,0.221 -0.613,0.494 -0.027,0.09 -0.036,0.183 -0.028,0.274 0.017,0.184 0.104,0.358 0.251,0.48 l 4.512,3.771 -18.279,19.94 -20.866,-7.678 c -0.699,-0.255 -1.481,-0.075 -1.997,0.459 L 12.708,40.688 c -0.716,0.746 -0.693,1.93 0.053,2.646 0.362,0.349 0.829,0.523 1.296,0.523 z"
               id="path3856" />
          </g>
        </g>
        <g
           style="fill:#ffffff"
           id="g3862" />
        <g
           style="fill:#ffffff"
           id="g3864" />
        <g
           style="fill:#ffffff"
           id="g3866" />
        <g
           style="fill:#ffffff"
           id="g3868" />
        <g
           style="fill:#ffffff"
           id="g3870" />
        <g
           style="fill:#ffffff"
           id="g3872" />
        <g
           style="fill:#ffffff"
           id="g3874" />
        <g
           style="fill:#ffffff"
           id="g3876" />
        <g
           style="fill:#ffffff"
           id="g3878" />
        <g
           style="fill:#ffffff"
           id="g3880" />
        <g
           style="fill:#ffffff"
           id="g3882" />
        <g
           style="fill:#ffffff"
           id="g3884" />
        <g
           style="fill:#ffffff"
           id="g3886" />
        <g
           style="fill:#ffffff"
           id="g3888" />
        <g
           style="fill:#ffffff"
           id="g3890" />
      </g>
      <text
         id="text3926"
         y="173.64992"
         x="32.366337"
         style="font-style:normal;font-variant:normal;font-weight:normal;font-stretch:normal;font-size:10.58333302px;line-height:1.25;font-family:Consolas;-inkscape-font-specification:Consolas;letter-spacing:0px;word-spacing:0px;fill:#000000;fill-opacity:1;stroke:none;stroke-width:0.26458332"
         xml:space="preserve"><tspan
           style="font-style:normal;font-variant:normal;font-weight:normal;font-stretch:normal;font-size:8.46666622px;font-family:Candara;-inkscape-font-specification:Candara;fill:#ffffff;stroke-width:0.26458332"
           y="173.64992"
           x="32.366337"
           id="tspan3924"
           sodipodi:role="line">Painel</tspan></text>
    </g>
    <g
       id="g4427"
       transform="translate(0,16.849658)">
      <g
         style="fill:#ffffff"
         transform="matrix(0.0300715,0,0,0.0300715,13.429864,184.43442)"
         id="g4029">
        <g
           style="fill:#ffffff"
           id="g3964">
          <g
             style="fill:#ffffff"
             id="g3962">
            <path
               style="fill:#ffffff"
               inkscape:connector-curvature="0"
               d="M 480.4,34.4 H 164.1 c -0.6,0 -1.2,0.5 -1.2,1.2 v 28.2 c 0,0.6 0.5,1.2 1.2,1.2 h 316.3 c 0.6,0 1.2,-0.5 1.2,-1.2 V 35.6 c 0,-0.7 -0.5,-1.2 -1.2,-1.2 z"
               id="path3944" />
            <path
               style="fill:#ffffff"
               inkscape:connector-curvature="0"
               d="m 164.1,116 h 157.5 c 0.6,0 1.2,-0.5 1.2,-1.2 V 86.6 c 0,-0.6 -0.5,-1.2 -1.2,-1.2 H 164.1 c -0.6,0 -1.2,0.5 -1.2,1.2 v 28.2 c 0,0.7 0.5,1.2 1.2,1.2 z"
               id="path3946" />
            <path
               style="fill:#ffffff"
               inkscape:connector-curvature="0"
               d="M 480.4,200 H 164.1 c -0.6,0 -1.2,0.5 -1.2,1.2 v 28.2 c 0,0.6 0.5,1.2 1.2,1.2 h 316.3 c 0.6,0 1.2,-0.5 1.2,-1.2 v -28.2 c 0,-0.7 -0.5,-1.2 -1.2,-1.2 z"
               id="path3948" />
            <path
               style="fill:#ffffff"
               inkscape:connector-curvature="0"
               d="m 164.1,281.6 h 157.5 c 0.6,0 1.2,-0.5 1.2,-1.2 v -28.2 c 0,-0.6 -0.5,-1.2 -1.2,-1.2 H 164.1 c -0.6,0 -1.2,0.5 -1.2,1.2 v 28.2 c 0,0.7 0.5,1.2 1.2,1.2 z"
               id="path3950" />
            <path
               style="fill:#ffffff"
               inkscape:connector-curvature="0"
               d="M 480.4,365.6 H 164.1 c -0.6,0 -1.2,0.5 -1.2,1.2 V 395 c 0,0.6 0.5,1.2 1.2,1.2 h 316.3 c 0.6,0 1.2,-0.5 1.2,-1.2 v -28.2 c 0,-0.7 -0.5,-1.2 -1.2,-1.2 z"
               id="path3952" />
            <path
               style="fill:#ffffff"
               inkscape:connector-curvature="0"
               d="M 321.6,416.7 H 164.1 c -0.6,0 -1.2,0.5 -1.2,1.2 v 28.2 c 0,0.6 0.5,1.2 1.2,1.2 h 157.5 c 0.6,0 1.2,-0.5 1.2,-1.2 v -28.2 c -0.1,-0.7 -0.6,-1.2 -1.2,-1.2 z"
               id="path3954" />
            <polygon
               style="fill:#ffffff"
               points="26.5,53.4 0,79.8 25.4,105.3 51.8,131.8 78.3,105.5 138.9,45.1 112.6,18.6 51.9,79 "
               id="polygon3956" />
            <polygon
               style="fill:#ffffff"
               points="26.5,219 0,245.4 25.4,270.9 51.8,297.4 78.3,271.1 138.9,210.7 112.6,184.2 51.9,244.6 "
               id="polygon3958" />
            <polygon
               style="fill:#ffffff"
               points="26.5,384.6 0,411 25.4,436.5 51.8,463 78.3,436.6 138.9,376.3 112.6,349.8 51.9,410.2 "
               id="polygon3960" />
          </g>
        </g>
        <g
           style="fill:#ffffff"
           id="g3966" />
        <g
           style="fill:#ffffff"
           id="g3968" />
        <g
           style="fill:#ffffff"
           id="g3970" />
        <g
           style="fill:#ffffff"
           id="g3972" />
        <g
           style="fill:#ffffff"
           id="g3974" />
        <g
           style="fill:#ffffff"
           id="g3976" />
        <g
           style="fill:#ffffff"
           id="g3978" />
        <g
           style="fill:#ffffff"
           id="g3980" />
        <g
           style="fill:#ffffff"
           id="g3982" />
        <g
           style="fill:#ffffff"
           id="g3984" />
        <g
           style="fill:#ffffff"
           id="g3986" />
        <g
           style="fill:#ffffff"
           id="g3988" />
        <g
           style="fill:#ffffff"
           id="g3990" />
        <g
           style="fill:#ffffff"
           id="g3992" />
        <g
           style="fill:#ffffff"
           id="g3994" />
      </g>
      <text
         id="text3926-0"
         y="194.61911"
         x="33.008911"
         style="font-style:normal;font-variant:normal;font-weight:normal;font-stretch:normal;font-size:10.58333302px;line-height:1.25;font-family:Consolas;-inkscape-font-specification:Consolas;letter-spacing:0px;word-spacing:0px;fill:#000000;fill-opacity:1;stroke:none;stroke-width:0.26458332"
         xml:space="preserve"><tspan
           style="font-style:normal;font-variant:normal;font-weight:normal;font-stretch:normal;font-size:8.46666622px;font-family:Candara;-inkscape-font-specification:Candara;fill:#ffffff;stroke-width:0.26458332"
           y="194.61911"
           x="33.008911"
           id="tspan3924-7"
           sodipodi:role="line">Tarefas</tspan></text>
    </g>
    <g
       id="g4449"
       transform="translate(0,25.75041)">
      <g
         style="fill:#ffffff"
         transform="matrix(0.03140444,0,0,0.03140444,13.477072,204.28488)"
         id="g4113">
        <g
           style="fill:#ffffff"
           id="g4057">
          <path
             style="fill:#ffffff"
             inkscape:connector-curvature="0"
             d="m 421.512,207.074 -85.795,85.767 c -47.352,47.38 -124.169,47.38 -171.529,0 -7.46,-7.439 -13.296,-15.821 -18.421,-24.465 l 39.864,-39.861 c 1.895,-1.911 4.235,-3.006 6.471,-4.296 2.756,9.416 7.567,18.33 14.972,25.736 23.648,23.667 62.128,23.634 85.762,0 l 85.768,-85.765 c 23.666,-23.664 23.666,-62.135 0,-85.781 -23.635,-23.646 -62.105,-23.646 -85.768,0 l -30.499,30.532 c -24.75,-9.637 -51.415,-12.228 -77.373,-8.424 l 64.991,-64.989 c 47.38,-47.371 124.177,-47.371 171.557,0 47.357,47.369 47.357,124.178 0,171.546 z m -226.804,141.03 -30.521,30.532 c -23.646,23.634 -62.128,23.634 -85.778,0 -23.648,-23.667 -23.648,-62.138 0,-85.795 l 85.778,-85.767 c 23.665,-23.662 62.121,-23.662 85.767,0 7.388,7.39 12.204,16.302 14.986,25.706 2.249,-1.307 4.56,-2.369 6.454,-4.266 l 39.861,-39.845 c -5.092,-8.678 -10.958,-17.03 -18.421,-24.477 -47.348,-47.371 -124.172,-47.371 -171.543,0 L 35.526,249.96 c -47.366,47.385 -47.366,124.172 0,171.553 47.371,47.356 124.177,47.356 171.547,0 l 65.008,-65.003 c -25.972,3.826 -52.644,1.213 -77.373,-8.406 z"
             id="path4055" />
        </g>
        <g
           style="fill:#ffffff"
           id="g4059" />
        <g
           style="fill:#ffffff"
           id="g4061" />
        <g
           style="fill:#ffffff"
           id="g4063" />
        <g
           style="fill:#ffffff"
           id="g4065" />
        <g
           style="fill:#ffffff"
           id="g4067" />
        <g
           style="fill:#ffffff"
           id="g4069" />
        <g
           style="fill:#ffffff"
           id="g4071" />
        <g
           style="fill:#ffffff"
           id="g4073" />
        <g
           style="fill:#ffffff"
           id="g4075" />
        <g
           style="fill:#ffffff"
           id="g4077" />
        <g
           style="fill:#ffffff"
           id="g4079" />
        <g
           style="fill:#ffffff"
           id="g4081" />
        <g
           style="fill:#ffffff"
           id="g4083" />
        <g
           style="fill:#ffffff"
           id="g4085" />
        <g
           style="fill:#ffffff"
           id="g4087" />
      </g>
      <text
         id="text3926-0-0"
         y="214.1058"
         x="32.28968"
         style="font-style:normal;font-variant:normal;font-weight:normal;font-stretch:normal;font-size:10.58333302px;line-height:1.25;font-family:Consolas;-inkscape-font-specification:Consolas;letter-spacing:0px;word-spacing:0px;fill:#000000;fill-opacity:1;stroke:none;stroke-width:0.26458332"
         xml:space="preserve"><tspan
           style="font-style:normal;font-variant:normal;font-weight:normal;font-stretch:normal;font-size:8.46666622px;font-family:Candara;-inkscape-font-specification:Candara;fill:#ffffff;stroke-width:0.26458332"
           y="214.1058"
           x="32.28968"
           id="tspan3924-7-6"
           sodipodi:role="line">Links</tspan></text>
    </g>
    <g
       id="g4471"
       transform="translate(0,35.454183)">
      <path
         inkscape:connector-curvature="0"
         id="path4161"
         d="m 11.74088,223.17479 h 0.149704"
         style="fill:none;stroke:#000000;stroke-width:0.26458299;stroke-linecap:square;stroke-linejoin:miter;stroke-miterlimit:4;stroke-dasharray:none;stroke-opacity:1;marker-start:url(#Arrow2Sstart);marker-end:url(#Arrow2Send)" />
      <g
         style="fill:#ffffff"
         transform="matrix(0.03752162,0,0,0.03752162,13.45207,222.78841)"
         id="g4338">
        <path
           style="fill:#ffffff"
           inkscape:connector-curvature="0"
           d="M 336.764,45.945 H 45.354 C 20.346,45.945 0,65.484 0,89.5 v 203.117 c 0,24.016 20.346,43.555 45.354,43.555 h 291.41 c 25.008,0 45.353,-19.539 45.353,-43.555 V 89.5 c 0,-24.016 -20.345,-43.555 -45.353,-43.555 z m 0,251.775 H 45.354 c -3.676,0 -6.9,-2.384 -6.9,-5.103 V 116.359 l 131.797,111.27 c 2.702,2.282 6.138,3.538 9.676,3.538 l 22.259,0.001 c 3.536,0 6.974,-1.257 9.677,-3.539 L 343.666,116.355 v 176.264 c -0.002,2.717 -3.227,5.101 -6.902,5.101 z M 191.059,192.987 62.87,84.397 h 256.378 z"
           id="path4283" />
        <g
           style="fill:#ffffff"
           id="g4285" />
        <g
           style="fill:#ffffff"
           id="g4287" />
        <g
           style="fill:#ffffff"
           id="g4289" />
        <g
           style="fill:#ffffff"
           id="g4291" />
        <g
           style="fill:#ffffff"
           id="g4293" />
        <g
           style="fill:#ffffff"
           id="g4295" />
        <g
           style="fill:#ffffff"
           id="g4297" />
        <g
           style="fill:#ffffff"
           id="g4299" />
        <g
           style="fill:#ffffff"
           id="g4301" />
        <g
           style="fill:#ffffff"
           id="g4303" />
        <g
           style="fill:#ffffff"
           id="g4305" />
        <g
           style="fill:#ffffff"
           id="g4307" />
        <g
           style="fill:#ffffff"
           id="g4309" />
        <g
           style="fill:#ffffff"
           id="g4311" />
        <g
           style="fill:#ffffff"
           id="g4313" />
      </g>
      <text
         id="text3926-0-0-5"
         y="232.87988"
         x="32.272964"
         style="font-style:normal;font-variant:normal;font-weight:normal;font-stretch:normal;font-size:10.58333302px;line-height:1.25;font-family:Consolas;-inkscape-font-specification:Consolas;letter-spacing:0px;word-spacing:0px;fill:#000000;fill-opacity:1;stroke:none;stroke-width:0.26458332"
         xml:space="preserve"><tspan
           style="font-style:normal;font-variant:normal;font-weight:normal;font-stretch:normal;font-size:8.46666622px;font-family:Candara;-inkscape-font-specification:Candara;fill:#ffffff;stroke-width:0.26458332"
           y="232.87988"
           x="32.272964"
           id="tspan3924-7-6-8"
           sodipodi:role="line">Sobre</tspan></text>
    </g>
    <text
       xml:space="preserve"
       style="font-style:normal;font-variant:normal;font-weight:normal;font-stretch:normal;font-size:14.11111069px;line-height:1.25;font-family:Consolas;-inkscape-font-specification:Consolas;letter-spacing:0px;word-spacing:0px;fill:#000000;fill-opacity:1;stroke:none;stroke-width:0.26458332"
       x="284.54141"
       y="106.11798"
       id="text5980"><tspan
         sodipodi:role="line"
         id="tspan5978"
         x="284.54141"
         y="106.11798"
         style="stroke-width:0.26458332">X</tspan></text>
  </g>
</svg>
