<?xml version="1.0" encoding="UTF-8" standalone="no"?>
<!-- Created with Inkscape (http://www.inkscape.org/) -->

<svg
   xmlns:dc="http://purl.org/dc/elements/1.1/"
   xmlns:cc="http://creativecommons.org/ns#"
   xmlns:rdf="http://www.w3.org/1999/02/22-rdf-syntax-ns#"
   xmlns:svg="http://www.w3.org/2000/svg"
   xmlns="http://www.w3.org/2000/svg"
   xmlns:sodipodi="http://sodipodi.sourceforge.net/DTD/sodipodi-0.dtd"
   xmlns:inkscape="http://www.inkscape.org/namespaces/inkscape"
   width="297mm"
   height="210mm"
   viewBox="0 0 297 210"
   version="1.1"
   id="svg2991"
   inkscape:version="0.92.1 r15371"
   sodipodi:docname="tela limpa.svg">
  <defs
     id="defs2985" />
  <sodipodi:namedview
     id="base"
     pagecolor="#ffffff"
     bordercolor="#666666"
     borderopacity="1.0"
     inkscape:pageopacity="0.0"
     inkscape:pageshadow="2"
     inkscape:zoom="0.70710678"
     inkscape:cx="446.91341"
     inkscape:cy="416.16849"
     inkscape:document-units="mm"
     inkscape:current-layer="layer1"
     showgrid="false"
     inkscape:window-width="1366"
     inkscape:window-height="715"
     inkscape:window-x="-8"
     inkscape:window-y="-8"
     inkscape:window-maximized="1" />
  <metadata
     id="metadata2988">
    <rdf:RDF>
      <cc:Work
         rdf:about="">
        <dc:format>image/svg+xml</dc:format>
        <dc:type
           rdf:resource="http://purl.org/dc/dcmitype/StillImage" />
        <dc:title />
      </cc:Work>
    </rdf:RDF>
  </metadata>
  <g
     inkscape:label="Camada 1"
     inkscape:groupmode="layer"
     id="layer1"
     transform="translate(0,-87)">
    <g
       id="g3012"
       transform="matrix(0.39754002,0,0,0.39754002,-113.51543,10.823645)">
      <path
         inkscape:connector-curvature="0"
         id="path2993"
         d="M 91.853898,123.41859 C 60.477307,197.39867 58.848633,197.85115 58.848633,197.85115 L 138.76197,167.2286 79.658935,178.03457 Z"
         style="fill:#ffffff;stroke:#000000;stroke-width:0.26458332px;stroke-linecap:butt;stroke-linejoin:miter;stroke-opacity:1" />
      <path
         inkscape:connector-curvature="0"
         id="path2993-1"
         d="m 101.15574,140.26652 c 25.22215,76.29801 24.29661,77.71247 24.29661,77.71247 l 39.85757,-75.73147 -37.29023,47.11024 z"
         style="fill:#ffffff;stroke:#000000;stroke-width:0.26458332px;stroke-linecap:butt;stroke-linejoin:miter;stroke-opacity:1" />
    </g>
    <rect
       style="fill:#9030b0;stroke-width:0.31827801"
       id="rect3014"
       width="296.99988"
       height="4.957849"
       x="0"
       y="87.013023" />
    <rect
       style="fill:#000000;stroke-width:4.9543376"
       id="rect3016"
       width="80.002319"
       height="205.05617"
       x="0"
       y="91.97084" />
    <rect
       style="fill:#000000;fill-opacity:1;stroke-width:0.26458332"
       id="rect3833"
       width="53.507359"
       height="19.083044"
       x="14.967093"
       y="146.58072" />
    <g
       id="g3844">
      <path
         inkscape:connector-curvature="0"
         id="path3018"
         d="m 43.501972,130.62981 c -0.491813,-1.78355 -2.427015,-8.11205 -3.468158,-11.34158 -0.316664,-0.98227 -1.568365,-4.84105 -2.781557,-8.57508 -1.213188,-3.73403 -2.179894,-6.81505 -2.148234,-6.84671 0.03166,-0.0317 2.22522,3.90537 4.874572,8.74896 2.649353,4.84359 4.876036,8.81408 4.948185,8.82332 0.07215,0.009 3.159421,-3.80799 6.860606,-8.48272 3.701182,-4.67473 6.756342,-8.47259 6.789243,-8.43969 0.04353,0.0435 -14.394873,27.63347 -14.565765,27.83329 -0.01442,0.0169 -0.243417,-0.75705 -0.508892,-1.71979 z"
         style="fill:#ffffff;stroke-width:0.13229166" />
      <path
         inkscape:connector-curvature="0"
         id="path3020"
         d="m 17.90772,124.30521 c 0.04368,-0.10359 0.730676,-1.58732 1.526667,-3.29719 1.658583,-3.5628 4.661858,-10.39501 8.061185,-18.33856 1.293088,-3.021685 2.367413,-5.415052 2.387386,-5.318592 0.01998,0.09646 -0.941591,4.550932 -2.136812,9.898822 -1.195221,5.34789 -2.156929,9.74049 -2.13713,9.76134 0.01979,0.0208 2.872118,-0.47957 6.338488,-1.11204 3.466368,-0.63247 6.32953,-1.1229 6.362581,-1.08985 0.03305,0.0331 0.171845,0.41914 0.308425,0.85798 l 0.248333,0.79789 -10.330935,3.9501 c -12.0979,4.62572 -10.72675,4.12385 -10.628188,3.8901 z"
         style="fill:#ffffff;stroke-width:0.13229166" />
      <path
         inkscape:connector-curvature="0"
         id="path3022"
         d="m 41.420831,114.7877 c -0.205277,-0.40237 -0.230073,-0.54583 -0.101907,-0.58956 0.297691,-0.10156 6.101493,-1.12659 6.143125,-1.08495 0.04135,0.0413 -5.538835,2.20629 -5.686782,2.20629 -0.04573,0 -0.205224,-0.2393 -0.354436,-0.53178 z"
         style="fill:#ffffff;stroke-width:0.13229166" />
      <text
         id="text3837"
         y="144.70982"
         x="17.586336"
         style="font-style:normal;font-variant:normal;font-weight:normal;font-stretch:normal;font-size:10.58333302px;line-height:1.25;font-family:Consolas;-inkscape-font-specification:Consolas;letter-spacing:0px;word-spacing:0px;fill:#000000;fill-opacity:1;stroke:none;stroke-width:0.26458332"
         xml:space="preserve"><tspan
           style="fill:#ffffff;stroke-width:0.26458332"
           y="144.70982"
           x="17.586336"
           id="tspan3835"
           sodipodi:role="line">Certweb</tspan></text>
    </g>
    <text
       xml:space="preserve"
       style="font-style:normal;font-variant:normal;font-weight:normal;font-stretch:normal;font-size:14.11111069px;line-height:1.25;font-family:Consolas;-inkscape-font-specification:Consolas;letter-spacing:0px;word-spacing:0px;fill:#000000;fill-opacity:1;stroke:none;stroke-width:0.26458332"
       x="284.38641"
       y="106.05376"
       id="text5980"><tspan
         sodipodi:role="line"
         id="tspan5978"
         x="284.38641"
         y="106.05376"
         style="stroke-width:0.26458332">X</tspan></text>
  </g>
</svg>
